<?xml version="1.0" encoding="utf-8"?>
<!-- Generator: Adobe Illustrator 26.0.3, SVG Export Plug-In . SVG Version: 6.00 Build 0)  -->
<svg version="1.1" id="Layer_1" xmlns="http://www.w3.org/2000/svg" xmlns:xlink="http://www.w3.org/1999/xlink" x="0px" y="0px"
	 viewBox="0 0 14.925 16.077" enable-background="new 0 0 14.925 16.077" xml:space="preserve">
<g>
	<g>
		<path fill="#FFFFFF" d="M0.002,8.054c0-1.667-0.001-3.333,0-5c0.001-1.474,0.955-2.666,2.391-2.982
			c0.198-0.044,0.405-0.067,0.608-0.068c1.412-0.006,2.825-0.003,4.237-0.003c0.265,0,0.488,0.209,0.497,0.463
			C7.745,0.712,7.551,0.921,7.285,0.95C7.229,0.956,7.172,0.954,7.116,0.954c-1.367,0-2.735,0-4.102,0
			c-1.162,0-2.07,0.911-2.07,2.076c0,3.333,0,6.667,0,10c0,1.089,0.684,1.911,1.754,2.105c0.088,0.016,0.18,0.017,0.27,0.017
			c1.373,0.001,2.746-0.001,4.119,0.004c0.109,0,0.226,0.022,0.326,0.065c0.171,0.074,0.247,0.23,0.251,0.41
			c0.004,0.184-0.108,0.316-0.239,0.428c-0.028,0.024-0.087,0.013-0.132,0.013c-1.593,0-3.187,0.018-4.779-0.015
			c-0.316-0.007-0.652-0.166-0.938-0.326c-1.043-0.586-1.567-1.497-1.572-2.694C-0.003,11.376,0.002,9.715,0.002,8.054z"/>
		<path fill="#FFFFFF" d="M13.278,7.538C12.905,7.169,12.532,6.8,12.161,6.43c-0.324-0.323-0.65-0.645-0.97-0.972
			c-0.166-0.169-0.187-0.384-0.07-0.574c0.108-0.177,0.326-0.269,0.528-0.205c0.087,0.028,0.175,0.084,0.24,0.149
			c0.954,0.948,1.904,1.899,2.854,2.851c0.245,0.246,0.242,0.51-0.003,0.755c-0.946,0.948-1.893,1.894-2.84,2.841
			c-0.14,0.14-0.295,0.223-0.502,0.161c-0.194-0.058-0.305-0.19-0.342-0.382c-0.035-0.184,0.053-0.325,0.179-0.451
			c0.64-0.638,1.279-1.278,1.918-1.917c0.039-0.039,0.076-0.08,0.148-0.155c-0.106,0-0.175,0-0.244,0
			c-2.967,0-5.933,0.001-8.899-0.001c-0.1,0-0.206-0.002-0.301-0.03c-0.221-0.064-0.34-0.26-0.32-0.496
			c0.018-0.212,0.168-0.375,0.385-0.41c0.078-0.012,0.157-0.013,0.236-0.013c2.978,0,5.956,0,8.933,0c0.055,0,0.11,0,0.165,0
			C13.264,7.568,13.271,7.553,13.278,7.538z"/>
	</g>
</g>
</svg>
