<?xml version="1.0" encoding="utf-8"?>
<!-- Generator: Adobe Illustrator 26.0.3, SVG Export Plug-In . SVG Version: 6.00 Build 0)  -->
<svg version="1.1" id="Layer_1" xmlns="http://www.w3.org/2000/svg" xmlns:xlink="http://www.w3.org/1999/xlink" x="0px" y="0px"
	 viewBox="0 0 18.286 15.305" enable-background="new 0 0 18.286 15.305" xml:space="preserve">
<g>
	<path stroke="#FFFFFF" stroke-width="0.25" stroke-miterlimit="10" d="M10.669,3.986
		c0.182,1.946-1.68,3.755-3.765,3.755c-2,0-3.834-1.72-3.809-3.862c0.021-1.85,1.621-3.801,3.917-3.753
		C8.822,0.164,10.874,1.767,10.669,3.986z M6.927,6.132C8.018,6.11,9.125,4.979,9.103,3.909C9.081,2.818,7.95,1.711,6.88,1.732
		C5.791,1.754,4.683,2.886,4.704,3.955C4.726,5.045,5.858,6.154,6.927,6.132z"/>
	<path stroke="#FFFFFF" stroke-width="0.25" stroke-miterlimit="10" d="M13.652,13.36
		c0,0.392,0.017,0.785-0.005,1.176c-0.023,0.427-0.283,0.628-0.703,0.643c-0.486,0.018-0.748-0.17-0.798-0.653
		c-0.041-0.388,0.018-0.788-0.029-1.175c-0.208-1.732-0.726-2.477-2.503-2.617c-1.808-0.142-3.644-0.143-5.451,0.004
		c-1.76,0.143-2.277,0.894-2.476,2.641c-0.044,0.388,0.002,0.785-0.027,1.176c-0.032,0.428-0.303,0.619-0.72,0.624
		c-0.4,0.005-0.765-0.128-0.762-0.565c0.008-1.125-0.253-2.268,0.311-3.359c0.706-1.366,1.795-2.079,3.32-2.094
		c1.997-0.019,4.002,0.103,5.99-0.036c1.985-0.139,4.145,1.893,3.867,3.913c-0.014,0.105-0.002,0.214-0.002,0.321
		C13.661,13.36,13.656,13.36,13.652,13.36z"/>
	<path stroke="#FFFFFF" stroke-width="0.25" stroke-miterlimit="10" d="M15.164,3.944
		c0.105,1.499-0.722,2.963-2.581,3.622c-0.575,0.204-1.044,0.023-1.234-0.47c-0.157-0.409-0.021-0.743,0.53-0.998
		c0.813-0.376,1.471-0.819,1.587-1.821c0.124-1.073-0.274-1.884-1.254-2.318c-0.129-0.057-0.278-0.077-0.399-0.146
		c-0.457-0.257-0.622-0.658-0.454-1.065c0.187-0.452,0.636-0.655,1.146-0.478C14.272,0.883,15.261,2.205,15.164,3.944z"/>
	<path stroke="#FFFFFF" stroke-width="0.25" stroke-miterlimit="10" d="M18.16,13.446c0,0.178,0.002,0.356,0,0.533
		c-0.013,0.954-0.189,1.217-0.799,1.2c-0.571-0.016-0.7-0.25-0.746-1.153c-0.028-0.563-0.111-1.125-0.202-1.681
		c-0.114-0.69-0.529-1.146-1.182-1.39c-0.166-0.062-0.348-0.1-0.493-0.194c-0.362-0.234-0.546-0.561-0.392-1
		c0.147-0.418,0.584-0.643,1.03-0.549c1.433,0.301,2.708,1.8,2.775,3.274c0.015,0.319,0.002,0.64,0.002,0.96
		C18.156,13.446,18.158,13.446,18.16,13.446z"/>
</g>
</svg>
